<?xml version="1.0" encoding="UTF-8" standalone="no"?>
<!DOCTYPE svg PUBLIC "-//W3C//DTD SVG 1.1//EN" "http://www.w3.org/Graphics/SVG/1.1/DTD/svg11.dtd">
<svg version="1.1" xmlns="http://www.w3.org/2000/svg" xmlns:xlink="http://www.w3.org/1999/xlink" preserveAspectRatio="xMidYMid meet" viewBox="0 0 640 640" width="640" height="640"><defs><path d="M115.5 208.87L253.49 161.03L183.57 45.13L310.52 129.76L332.6 4.65L367.56 151.84L531.3 208.87L505.54 449.89L540.5 615.47L492.41 562.12L459.55 624.67L439.31 477.25L457.71 313.74L367.56 282.46L387.79 378.13L297.64 282.46L194.61 313.74L220.37 477.25L194.61 633.87L167.02 562.12L115.5 633.87L150.46 449.89L115.5 208.87Z" id="c344RwGQdJ"></path><path d="M286.81 319.68L321.59 355.96L286.81 339.33L236.92 360.5L230.88 339.33L286.81 319.68Z" id="bjPsYuSCk"></path><path d="M386.31 319.68L351.53 355.96L386.31 339.33L436.2 360.5L442.24 339.33L386.31 319.68Z" id="hASXzWvrS"></path><path d="" id="a1vXmz4RpP"></path></defs><g><g><g><use xlink:href="#c344RwGQdJ" opacity="1" fill="#d7774c" fill-opacity="1"></use><g><use xlink:href="#c344RwGQdJ" opacity="1" fill-opacity="0" stroke="#000000" stroke-width="0" stroke-opacity="1"></use></g></g><g><use xlink:href="#bjPsYuSCk" opacity="1" fill="#d7774c" fill-opacity="1"></use><g><use xlink:href="#bjPsYuSCk" opacity="1" fill-opacity="0" stroke="#000000" stroke-width="0" stroke-opacity="1"></use></g></g><g><use xlink:href="#hASXzWvrS" opacity="1" fill="#d7774c" fill-opacity="1"></use><g><use xlink:href="#hASXzWvrS" opacity="1" fill-opacity="0" stroke="#000000" stroke-width="0" stroke-opacity="1"></use></g></g><g><g><use xlink:href="#a1vXmz4RpP" opacity="1" fill-opacity="0" stroke="#000000" stroke-width="1" stroke-opacity="1"></use></g></g></g></g></svg>